General
Unique ID                        : 189538432546009420776693569849698161377 (0x8E97C6378F04CA1BB920EAB0A4CE12E1)
Complete name                    : Confessions.2010.BluRay1080p.DTS.x264-JOMA.mkv
Format                           : Matroska
File size                        : 8.93 GiB
Duration                         : 1h 46mn
Overall bit rate                 : 12.0 Mbps
Encoded date                     : UTC 2011-02-27 21:50:09
Writing application              : mkvmerge v2.9.7 ('Tenderness') built on Jul  1 2009 18:43:35
Writing library                  : libebml v0.7.7 + libmatroska v0.8.1

Video
ID                               : 1
Format                           : AVC
Format/Info                      : Advanced Video Codec
Format profile                   : High@L4.1
Format settings, CABAC           : Yes
Format settings, ReFrames        : 12 frames
Codec ID                         : V_MPEG4/ISO/AVC
Duration                         : 1h 46mn
Bit rate                         : 10.5 Mbps
Width                            : 1 920 pixels
Height                           : 1 080 pixels
Display aspect ratio             : 16:9
Frame rate                       : 23.976 fps
Color space                      : YUV
Chroma subsampling               : 4:2:0
Bit depth                        : 8 bits
Scan type                        : Progressive
Bits/(Pixel*Frame)               : 0.211
Stream size                      : 7.63 GiB (85%)
Writing library                  : x264 core 68 r1183M f21daff
Encoding settings                : cabac=1 / ref=12 / deblock=1:-3:-3 / analyse=0x3:0x133 / me=umh / subme=9 / psy_rd=1.0:0.0 / mixed_ref=1 / me_range=32 / chroma_me=1 / trellis=2 / 8x8dct=1 / cqm=0 / deadzone=21,11 / chroma_qp_offset=-2 / threads=12 / nr=0 / decimate=1 / mbaff=0 / bframes=3 / b_pyramid=1 / b_adapt=2 / b_bias=0 / direct=3 / wpredb=1 / keyint=250 / keyint_min=25 / scenecut=40 / rc=2pass / bitrate=10490 / ratetol=1.0 / qcomp=0.60 / qpmin=10 / qpmax=51 / qpstep=4 / cplxblur=20.0 / qblur=0.5 / vbv_maxrate=50000 / vbv_bufsize=50000 / ip_ratio=1.40 / pb_ratio=1.30 / aq=1:1.00
Language                         : English

Audio
ID                               : 2
Format                           : DTS
Format/Info                      : Digital Theater Systems
Codec ID                         : A_DTS
Duration                         : 1h 46mn
Bit rate mode                    : Constant
Bit rate                         : 1 510 Kbps
Channel(s)                       : 6 channels
Channel positions                : Front: L C R, Side: L R, LFE
Sampling rate                    : 48.0 KHz
Bit depth                        : 16 bits
Compression mode                 : Lossy
Stream size                      : 1.12 GiB (13%)
Language                         : Japanese